<svg xmlns="http://www.w3.org/2000/svg" viewBox="0 0 253.13 69.28">
  <g>
    <g>
      <path fill="#323232" d="M99.58,43.11c-1.85,0-2.77-.82-2.77-2.46v-8.1h5.85v-3.3h-5.85v-4.84h-4.22v4.84h-2.82v3.3h2.82v8.18c0,1.82.4,3.24,1.21,4.27.81,1.03,2.43,1.54,4.86,1.54.7,0,1.42-.09,2.13-.26.72-.18,1.59-.41,2.62-.7l-.57-2.99c-1.32.35-2.41.53-3.26.53Z"/>
      <path fill="#323232" d="M111.34,30.48l-.53-1.23h-2.99v16.9h4.18v-13.02c.88-.32,1.8-.48,2.77-.48,1.41,0,2.61.29,3.61.88l.18-.04.84-3.83c-.97-.44-2-.66-3.08-.66-1.76,0-3.42.5-4.97,1.5Z"/>
      <rect fill="#323232" x="123.77" y="29.25" width="4.22" height="16.9"/>
      <path fill="#323232" d="M125.88,21.02c-.73,0-1.36.26-1.89.77-.53.51-.79,1.15-.79,1.91s.26,1.36.79,1.89c.53.53,1.16.79,1.89.79s1.4-.26,1.91-.79c.51-.53.77-1.16.77-1.89s-.26-1.4-.77-1.91c-.51-.51-1.15-.77-1.91-.77Z"/>
      <path fill="#323232" d="M146.39,29.82c-1.23-.56-2.46-.84-3.7-.84-1.7,0-3.37.46-5.02,1.36l-.48-1.1h-2.95v25.96h4.22v-9.55c.67.29,1.28.51,1.83.66.54.15,1.15.22,1.83.22,2.73,0,4.85-.78,6.36-2.35,1.51-1.57,2.27-3.72,2.27-6.45,0-2.11-.42-3.82-1.25-5.13s-1.87-2.24-3.1-2.79ZM145.05,41.99c-.92.84-2.13,1.25-3.63,1.25-1.09,0-2.05-.28-2.9-.84v-9.46c.94-.41,1.95-.62,3.04-.62,3.26,0,4.88,1.88,4.88,5.63,0,1.85-.46,3.19-1.39,4.03Z"/>
      <polygon fill="#323232" points="172.08 31.27 163.44 31.27 163.44 22.03 157.51 22.03 157.51 46.04 163.44 46.04 163.44 36.84 172.08 36.84 172.08 46.04 177.96 46.04 177.96 22.03 172.08 22.03 172.08 31.27"/>
      <polygon fill="#323232" points="184.6 46.04 201.04 46.04 201.04 40.48 190.52 40.48 190.52 36.64 199.84 36.64 199.84 31.07 190.52 31.07 190.52 27.55 201.04 27.55 201.04 22.03 184.6 22.03 184.6 46.04"/>
      <path fill="#323232" d="M225.01,29.51c0-3.41-1.74-7.48-10.04-7.48h-8.2v24.01h5.92v-8.54c.31.01.56.02.76.02.45,0,.84,0,1.16-.01l5.03,8.54h6.78l-5.83-9.71c2.9-1.34,4.42-3.67,4.42-6.82ZM212.68,27.55h1.88c1.56,0,2.78.18,3.63.54.42.18.85.5.85,1.5,0,1.23-.54,1.6-1.06,1.81-1.01.39-2.49.59-4.38.59-.3,0-.61-.01-.92-.03v-4.41Z"/>
      <path fill="#323232" d="M251.55,27.5c-1.05-1.83-2.49-3.27-4.29-4.26-1.78-.99-3.8-1.49-5.99-1.49s-4.22.52-6.02,1.55c-1.81,1.03-3.25,2.5-4.3,4.36-1.04,1.85-1.57,4-1.57,6.37,0,2.55.56,4.78,1.66,6.63,1.11,1.86,2.58,3.29,4.37,4.24,1.78.94,3.71,1.42,5.73,1.42,2.25,0,4.31-.54,6.13-1.6,1.82-1.06,3.26-2.57,4.3-4.47,1.02-1.89,1.54-4.05,1.54-6.42s-.53-4.51-1.57-6.34ZM241.4,40.64c-1.13,0-2.13-.27-3.05-.82-.91-.55-1.62-1.31-2.15-2.34-.54-1.04-.81-2.28-.81-3.68,0-1.49.28-2.73.83-3.68.55-.95,1.22-1.62,2.07-2.05.87-.44,1.82-.67,2.83-.67s1.95.23,2.87.69c.9.45,1.63,1.15,2.23,2.14.59.98.9,2.26.9,3.8s-.28,2.8-.83,3.79c-.55.98-1.23,1.67-2.09,2.12-.89.46-1.81.69-2.8.69Z"/>
    </g>
    <g>
      <path fill="#323232" d="M37.31,69.28c-.15,0-.31-.02-.46-.07l-10.61-3.39c-.71-.23-1.15-.94-1.02-1.68l1.05-6.21c.07-.39.29-.74.61-.97s.73-.33,1.12-.26l5.62.95,10.28-6.99-11.15-6.17c-.56-.31-.86-.93-.75-1.56l1.05-6.21c.07-.39.29-.74.61-.97.32-.23.73-.32,1.12-.26l24.24,4.08,6.6-4.7c1.34-.95,2.96-1.33,4.58-1.05,1.62.27,3.03,1.16,3.98,2.5,1.84,2.59,1.24,6.2-1.36,8.05l-34.64,24.65c-.26.18-.56.28-.87.28ZM28.39,63.36l8.66,2.76,34.03-24.22c1.24-.89,1.54-2.62.65-3.86-.49-.68-1.21-1.14-2.04-1.28s-1.66.05-2.34.54l-7.11,5.06c-.32.23-.73.32-1.12.26l-23.38-3.94-.62,3.69,12.35,6.84c.46.25.75.72.77,1.24.02.52-.22,1.02-.65,1.31l-12.79,8.71c-.32.22-.71.3-1.09.24l-4.74-.8-.58,3.45Z"/>
      <path fill="#f05357" d="M19.5,59.64c-.5,0-1.01-.11-1.5-.33l-.27-.13C6.96,54.05,0,43.03,0,31.1,0,13.95,13.95,0,31.09,0s31.09,14.03,31.09,31.28c0,1.98-1.6,3.58-3.58,3.58s-3.58-1.6-3.58-3.58c0-13.3-10.74-24.12-23.94-24.12S7.16,17.9,7.16,31.1c0,9.19,5.36,17.68,13.67,21.63l.18.08c1.79.83,2.58,2.95,1.75,4.75-.6,1.31-1.9,2.08-3.25,2.08Z"/>
    </g>
  </g>
</svg>
